# Blender v2.79 (sub 0) OBJ File: ''
# www.blender.org
o Cube
v 0.000000 -0.500000 -0.000000
v -0.000000 -0.500000 1.000000
v 0.000000 0.500000 0.000000
v -0.000000 0.500000 1.000000
v 0.500000 0.000000 -0.000000
v 0.500000 -0.000000 1.000000
v -0.500000 0.000000 0.000000
v -0.500000 -0.000000 1.000000
v -0.000000 -0.000000 1.000000
v 0.000000 0.000000 0.000000
v -0.000000 -0.000000 1.000000
v 0.000000 0.000000 0.000000
vn -1.0000 0.0000 -0.0000
vn -0.0000 -1.0000 -0.0000
s off
f 1//1 2//1 11//1 10//1
f 5//2 6//2 9//2 12//2
f 10//1 11//1 4//1 3//1
f 12//2 9//2 8//2 7//2
