<?xml version="1.0" encoding="utf-8"?>
<!-- Generator: Adobe Illustrator 23.0.3, SVG Export Plug-In . SVG Version: 6.00 Build 0)  -->
<svg version="1.1" xmlns="http://www.w3.org/2000/svg" xmlns:xlink="http://www.w3.org/1999/xlink" x="0px" y="0px"
	 viewBox="0 0 1024 1024" style="enable-background:new 0 0 1024 1024;" xml:space="preserve">
<style type="text/css">
	.st0{fill:#FFDC00;}
	.st1{fill:#FFC814;}
	.st2{display:none;opacity:0.2;}
	.st3{display:inline;fill:#FFFFFF;stroke:#000000;stroke-miterlimit:10;}
	.st4{fill:#FFFFDC;}
</style>
<g id="Layer_2">
	<g>
		<path class="st0" d="M460.8,972.8c67.5-53.08,152.11-131.13,231.28-240.11C750.13,652.78,790.72,576.26,819.2,512
			c-37.29-25.67-88.6-55.12-153.6-77.15c-37.4-12.68-72.1-20.45-102.4-25.25c0,0,51.2-358.4,51.2-358.4
			c-66.23,51.59-149.77,127.83-228.17,234.72C325.92,368.15,284.52,446.86,256,512c38.84,25.39,90.15,53.48,153.6,75.46
			c37.06,12.84,71.66,21.31,102.4,26.94c-14.6,102.19-29.2,204.38-43.8,306.57C465.74,938.25,463.27,955.52,460.8,972.8z"/>
		<g>
			<path class="st1" d="M471.41,983.41c54.93-43.25,106.16-91.14,152.87-143.16c57.86-64.43,109-135.02,151.99-210.2
				c20.5-35.84,39.13-72.74,55.88-110.48c3.48-7.84,1.93-15.5-5.38-20.52c-60.39-41.48-128.03-72.6-198.9-91.19
				c-20-5.25-40.26-9.46-60.68-12.72c3.49,6.15,6.98,12.3,10.48,18.45c1.69-11.84,3.38-23.68,5.07-35.52
				c4.09-28.61,8.17-57.21,12.26-85.82c4.92-34.46,9.84-68.91,14.77-103.37c4.26-29.8,8.52-59.61,12.77-89.41
				c2.08-14.56,4.2-29.12,6.24-43.68c0.03-0.2,0.06-0.4,0.09-0.6c0.96-6.71-0.64-13.28-6.89-16.94c-6.23-3.64-12.85-1.81-18.18,2.35
				c-55.23,43.07-106.7,90.92-153.55,142.98c-57.97,64.41-109.09,135.12-151.88,210.48c-20.33,35.8-38.77,72.66-55.31,110.37
				c-3.38,7.72-2.06,15.67,5.38,20.52c61.02,39.8,128.23,70.32,198.43,89.84c20.16,5.61,40.57,10.28,61.15,14.07
				c-3.49-6.15-6.98-12.3-10.48-18.45c-13.37,93.62-26.75,187.24-40.12,280.86c-3.69,25.85-7.39,51.7-11.08,77.54
				c-1.1,7.73,1.89,16.5,10.48,18.45c7.09,1.61,17.27-2.17,18.45-10.48c13.3-93.1,26.6-186.19,39.9-279.29
				c3.77-26.37,7.53-52.74,11.3-79.11c1.07-7.46-1.73-16.84-10.48-18.45c-73.39-13.53-143.23-38.28-208.08-74.17
				c-15.1-8.36-29.88-17.28-44.34-26.71c1.79,6.84,3.59,13.68,5.38,20.52c31.3-71.38,69.52-139.69,114.14-203.6
				c46.52-66.63,100.23-128.25,159.61-183.84c26.35-24.67,53.84-48.12,82.3-70.32c-8.36-4.86-16.71-9.73-25.07-14.59
				c-1.69,11.84-3.38,23.68-5.07,35.52c-4.09,28.61-8.17,57.21-12.26,85.82c-4.92,34.46-9.84,68.91-14.77,103.37
				c-4.26,29.8-8.52,59.61-12.77,89.41c-2.08,14.56-4.19,29.12-6.24,43.68c-0.03,0.2-0.06,0.4-0.09,0.6
				c-1.04,7.3,1.7,17.05,10.48,18.45c74.16,11.83,144.5,36.43,209.17,73.62c14.78,8.5,29.2,17.61,43.25,27.26
				c-1.79-6.84-3.59-13.68-5.38-20.52C774.53,575.88,736,644.25,691.14,708.28c-46.35,66.16-99.7,127.48-158.56,182.95
				c-26.39,24.87-53.9,48.53-82.38,70.96c-6.37,5.02-5.25,15.96,0,21.21C456.48,989.7,465.02,988.43,471.41,983.41z"/>
		</g>
	</g>
</g>
<g id="Layer_1" class="st2">
	<rect class="st3" width="51.2" height="51.2"/>
	<rect x="51.2" class="st3" width="51.2" height="51.2"/>
	<rect x="102.4" class="st3" width="51.2" height="51.2"/>
	<rect x="153.6" class="st3" width="51.2" height="51.2"/>
	<rect x="204.8" class="st3" width="51.2" height="51.2"/>
	<rect x="256" class="st3" width="51.2" height="51.2"/>
	<rect x="307.2" class="st3" width="51.2" height="51.2"/>
	<rect x="358.4" class="st3" width="51.2" height="51.2"/>
	<rect x="409.6" class="st3" width="51.2" height="51.2"/>
	<rect x="460.8" class="st3" width="51.2" height="51.2"/>
	<rect x="512" class="st3" width="51.2" height="51.2"/>
	<rect x="563.2" class="st3" width="51.2" height="51.2"/>
	<rect x="614.4" class="st3" width="51.2" height="51.2"/>
	<rect x="665.6" class="st3" width="51.2" height="51.2"/>
	<rect x="716.8" class="st3" width="51.2" height="51.2"/>
	<rect x="768" class="st3" width="51.2" height="51.2"/>
	<rect x="819.2" class="st3" width="51.2" height="51.2"/>
	<rect x="870.4" class="st3" width="51.2" height="51.2"/>
	<rect x="921.6" class="st3" width="51.2" height="51.2"/>
	<rect x="972.8" class="st3" width="51.2" height="51.2"/>
	<rect y="51.2" class="st3" width="51.2" height="51.2"/>
	<rect x="51.2" y="51.2" class="st3" width="51.2" height="51.2"/>
	<rect x="102.4" y="51.2" class="st3" width="51.2" height="51.2"/>
	<rect x="153.6" y="51.2" class="st3" width="51.2" height="51.2"/>
	<rect x="204.8" y="51.2" class="st3" width="51.2" height="51.2"/>
	<rect x="256" y="51.2" class="st3" width="51.2" height="51.2"/>
	<rect x="307.2" y="51.2" class="st3" width="51.2" height="51.2"/>
	<rect x="358.4" y="51.2" class="st3" width="51.2" height="51.2"/>
	<rect x="409.6" y="51.2" class="st3" width="51.2" height="51.2"/>
	<rect x="460.8" y="51.2" class="st3" width="51.2" height="51.2"/>
	<rect x="512" y="51.2" class="st3" width="51.2" height="51.2"/>
	<rect x="563.2" y="51.2" class="st3" width="51.2" height="51.2"/>
	<rect x="614.4" y="51.2" class="st3" width="51.2" height="51.2"/>
	<rect x="665.6" y="51.2" class="st3" width="51.2" height="51.2"/>
	<rect x="716.8" y="51.2" class="st3" width="51.2" height="51.2"/>
	<rect x="768" y="51.2" class="st3" width="51.2" height="51.2"/>
	<rect x="819.2" y="51.2" class="st3" width="51.2" height="51.2"/>
	<rect x="870.4" y="51.2" class="st3" width="51.2" height="51.2"/>
	<rect x="921.6" y="51.2" class="st3" width="51.2" height="51.2"/>
	<rect x="972.8" y="51.2" class="st3" width="51.2" height="51.2"/>
	<rect y="102.4" class="st3" width="51.2" height="51.2"/>
	<rect x="51.2" y="102.4" class="st3" width="51.2" height="51.2"/>
	<rect x="102.4" y="102.4" class="st3" width="51.2" height="51.2"/>
	<rect x="153.6" y="102.4" class="st3" width="51.2" height="51.2"/>
	<rect x="204.8" y="102.4" class="st3" width="51.2" height="51.2"/>
	<rect x="256" y="102.4" class="st3" width="51.2" height="51.2"/>
	<rect x="307.2" y="102.4" class="st3" width="51.2" height="51.2"/>
	<rect x="358.4" y="102.4" class="st3" width="51.2" height="51.2"/>
	<rect x="409.6" y="102.4" class="st3" width="51.2" height="51.2"/>
	<rect x="460.8" y="102.4" class="st3" width="51.2" height="51.2"/>
	<rect x="512" y="102.4" class="st3" width="51.2" height="51.2"/>
	<rect x="563.2" y="102.4" class="st3" width="51.2" height="51.2"/>
	<rect x="614.4" y="102.4" class="st3" width="51.2" height="51.2"/>
	<rect x="665.6" y="102.4" class="st3" width="51.2" height="51.2"/>
	<rect x="716.8" y="102.4" class="st3" width="51.2" height="51.2"/>
	<rect x="768" y="102.4" class="st3" width="51.2" height="51.2"/>
	<rect x="819.2" y="102.4" class="st3" width="51.2" height="51.2"/>
	<rect x="870.4" y="102.4" class="st3" width="51.2" height="51.2"/>
	<rect x="921.6" y="102.4" class="st3" width="51.2" height="51.2"/>
	<rect x="972.8" y="102.4" class="st3" width="51.2" height="51.2"/>
	<rect y="153.6" class="st3" width="51.2" height="51.2"/>
	<rect x="51.2" y="153.6" class="st3" width="51.2" height="51.2"/>
	<rect x="102.4" y="153.6" class="st3" width="51.2" height="51.2"/>
	<rect x="153.6" y="153.6" class="st3" width="51.2" height="51.2"/>
	<rect x="204.8" y="153.6" class="st3" width="51.2" height="51.2"/>
	<rect x="256" y="153.6" class="st3" width="51.2" height="51.2"/>
	<rect x="307.2" y="153.6" class="st3" width="51.2" height="51.2"/>
	<rect x="358.4" y="153.6" class="st3" width="51.2" height="51.2"/>
	<rect x="409.6" y="153.6" class="st3" width="51.2" height="51.2"/>
	<rect x="460.8" y="153.6" class="st3" width="51.2" height="51.2"/>
	<rect x="512" y="153.6" class="st3" width="51.2" height="51.2"/>
	<rect x="563.2" y="153.6" class="st3" width="51.2" height="51.2"/>
	<rect x="614.4" y="153.6" class="st3" width="51.2" height="51.2"/>
	<rect x="665.6" y="153.6" class="st3" width="51.2" height="51.2"/>
	<rect x="716.8" y="153.6" class="st3" width="51.2" height="51.2"/>
	<rect x="768" y="153.6" class="st3" width="51.2" height="51.2"/>
	<rect x="819.2" y="153.6" class="st3" width="51.2" height="51.2"/>
	<rect x="870.4" y="153.6" class="st3" width="51.2" height="51.2"/>
	<rect x="921.6" y="153.6" class="st3" width="51.2" height="51.2"/>
	<rect x="972.8" y="153.6" class="st3" width="51.2" height="51.2"/>
	<rect y="204.8" class="st3" width="51.2" height="51.2"/>
	<rect x="51.2" y="204.8" class="st3" width="51.2" height="51.2"/>
	<rect x="102.4" y="204.8" class="st3" width="51.2" height="51.2"/>
	<rect x="153.6" y="204.8" class="st3" width="51.2" height="51.2"/>
	<rect x="204.8" y="204.8" class="st3" width="51.2" height="51.2"/>
	<rect x="256" y="204.8" class="st3" width="51.2" height="51.2"/>
	<rect x="307.2" y="204.8" class="st3" width="51.2" height="51.2"/>
	<rect x="358.4" y="204.8" class="st3" width="51.2" height="51.2"/>
	<rect x="409.6" y="204.8" class="st3" width="51.2" height="51.2"/>
	<rect x="460.8" y="204.8" class="st3" width="51.2" height="51.2"/>
	<rect x="512" y="204.8" class="st3" width="51.2" height="51.2"/>
	<rect x="563.2" y="204.8" class="st3" width="51.2" height="51.2"/>
	<rect x="614.4" y="204.8" class="st3" width="51.2" height="51.2"/>
	<rect x="665.6" y="204.8" class="st3" width="51.2" height="51.2"/>
	<rect x="716.8" y="204.8" class="st3" width="51.2" height="51.2"/>
	<rect x="768" y="204.8" class="st3" width="51.2" height="51.2"/>
	<rect x="819.2" y="204.8" class="st3" width="51.2" height="51.2"/>
	<rect x="870.4" y="204.8" class="st3" width="51.2" height="51.2"/>
	<rect x="921.6" y="204.8" class="st3" width="51.2" height="51.2"/>
	<rect x="972.8" y="204.8" class="st3" width="51.2" height="51.2"/>
	<rect y="256" class="st3" width="51.2" height="51.2"/>
	<rect x="51.2" y="256" class="st3" width="51.2" height="51.2"/>
	<rect x="102.4" y="256" class="st3" width="51.2" height="51.2"/>
	<rect x="153.6" y="256" class="st3" width="51.2" height="51.2"/>
	<rect x="204.8" y="256" class="st3" width="51.2" height="51.2"/>
	<rect x="256" y="256" class="st3" width="51.2" height="51.2"/>
	<rect x="307.2" y="256" class="st3" width="51.2" height="51.2"/>
	<rect x="358.4" y="256" class="st3" width="51.2" height="51.2"/>
	<rect x="409.6" y="256" class="st3" width="51.2" height="51.2"/>
	<rect x="460.8" y="256" class="st3" width="51.2" height="51.2"/>
	<rect x="512" y="256" class="st3" width="51.2" height="51.2"/>
	<rect x="563.2" y="256" class="st3" width="51.2" height="51.2"/>
	<rect x="614.4" y="256" class="st3" width="51.2" height="51.2"/>
	<rect x="665.6" y="256" class="st3" width="51.2" height="51.2"/>
	<rect x="716.8" y="256" class="st3" width="51.2" height="51.2"/>
	<rect x="768" y="256" class="st3" width="51.2" height="51.2"/>
	<rect x="819.2" y="256" class="st3" width="51.2" height="51.2"/>
	<rect x="870.4" y="256" class="st3" width="51.2" height="51.2"/>
	<rect x="921.6" y="256" class="st3" width="51.2" height="51.2"/>
	<rect x="972.8" y="256" class="st3" width="51.2" height="51.2"/>
	<rect y="307.2" class="st3" width="51.2" height="51.2"/>
	<rect x="51.2" y="307.2" class="st3" width="51.2" height="51.2"/>
	<rect x="102.4" y="307.2" class="st3" width="51.2" height="51.2"/>
	<rect x="153.6" y="307.2" class="st3" width="51.2" height="51.2"/>
	<rect x="204.8" y="307.2" class="st3" width="51.2" height="51.2"/>
	<rect x="256" y="307.2" class="st3" width="51.2" height="51.2"/>
	<rect x="307.2" y="307.2" class="st3" width="51.2" height="51.2"/>
	<rect x="358.4" y="307.2" class="st3" width="51.2" height="51.2"/>
	<rect x="409.6" y="307.2" class="st3" width="51.2" height="51.2"/>
	<rect x="460.8" y="307.2" class="st3" width="51.2" height="51.2"/>
	<rect x="512" y="307.2" class="st3" width="51.2" height="51.2"/>
	<rect x="563.2" y="307.2" class="st3" width="51.2" height="51.2"/>
	<rect x="614.4" y="307.2" class="st3" width="51.2" height="51.2"/>
	<rect x="665.6" y="307.2" class="st3" width="51.2" height="51.2"/>
	<rect x="716.8" y="307.2" class="st3" width="51.2" height="51.2"/>
	<rect x="768" y="307.2" class="st3" width="51.2" height="51.2"/>
	<rect x="819.2" y="307.2" class="st3" width="51.2" height="51.2"/>
	<rect x="870.4" y="307.2" class="st3" width="51.2" height="51.2"/>
	<rect x="921.6" y="307.2" class="st3" width="51.2" height="51.2"/>
	<rect x="972.8" y="307.2" class="st3" width="51.2" height="51.2"/>
	<rect y="358.4" class="st3" width="51.2" height="51.2"/>
	<rect x="51.2" y="358.4" class="st3" width="51.2" height="51.2"/>
	<rect x="102.4" y="358.4" class="st3" width="51.2" height="51.2"/>
	<rect x="153.6" y="358.4" class="st3" width="51.2" height="51.2"/>
	<rect x="204.8" y="358.4" class="st3" width="51.2" height="51.2"/>
	<rect x="256" y="358.4" class="st3" width="51.2" height="51.2"/>
	<rect x="307.2" y="358.4" class="st3" width="51.2" height="51.2"/>
	<rect x="358.4" y="358.4" class="st3" width="51.2" height="51.2"/>
	<rect x="409.6" y="358.4" class="st3" width="51.2" height="51.2"/>
	<rect x="460.8" y="358.4" class="st3" width="51.2" height="51.2"/>
	<rect x="512" y="358.4" class="st3" width="51.2" height="51.2"/>
	<rect x="563.2" y="358.4" class="st3" width="51.2" height="51.2"/>
	<rect x="614.4" y="358.4" class="st3" width="51.2" height="51.2"/>
	<rect x="665.6" y="358.4" class="st3" width="51.2" height="51.2"/>
	<rect x="716.8" y="358.4" class="st3" width="51.2" height="51.2"/>
	<rect x="768" y="358.4" class="st3" width="51.2" height="51.2"/>
	<rect x="819.2" y="358.4" class="st3" width="51.2" height="51.2"/>
	<rect x="870.4" y="358.4" class="st3" width="51.2" height="51.2"/>
	<rect x="921.6" y="358.4" class="st3" width="51.2" height="51.2"/>
	<rect x="972.8" y="358.4" class="st3" width="51.2" height="51.2"/>
	<rect y="409.6" class="st3" width="51.2" height="51.2"/>
	<rect x="51.2" y="409.6" class="st3" width="51.2" height="51.2"/>
	<rect x="102.4" y="409.6" class="st3" width="51.2" height="51.2"/>
	<rect x="153.6" y="409.6" class="st3" width="51.2" height="51.2"/>
	<rect x="204.8" y="409.6" class="st3" width="51.2" height="51.2"/>
	<rect x="256" y="409.6" class="st3" width="51.2" height="51.2"/>
	<rect x="307.2" y="409.6" class="st3" width="51.2" height="51.2"/>
	<rect x="358.4" y="409.6" class="st3" width="51.2" height="51.2"/>
	<rect x="409.6" y="409.6" class="st3" width="51.2" height="51.2"/>
	<rect x="460.8" y="409.6" class="st3" width="51.2" height="51.2"/>
	<rect x="512" y="409.6" class="st3" width="51.2" height="51.2"/>
	<rect x="563.2" y="409.6" class="st3" width="51.2" height="51.2"/>
	<rect x="614.4" y="409.6" class="st3" width="51.2" height="51.2"/>
	<rect x="665.6" y="409.6" class="st3" width="51.2" height="51.2"/>
	<rect x="716.8" y="409.6" class="st3" width="51.2" height="51.2"/>
	<rect x="768" y="409.6" class="st3" width="51.2" height="51.2"/>
	<rect x="819.2" y="409.6" class="st3" width="51.2" height="51.2"/>
	<rect x="870.4" y="409.6" class="st3" width="51.2" height="51.2"/>
	<rect x="921.6" y="409.6" class="st3" width="51.2" height="51.2"/>
	<rect x="972.8" y="409.6" class="st3" width="51.2" height="51.2"/>
	<rect y="460.8" class="st3" width="51.2" height="51.2"/>
	<rect x="51.2" y="460.8" class="st3" width="51.2" height="51.2"/>
	<rect x="102.4" y="460.8" class="st3" width="51.2" height="51.2"/>
	<rect x="153.6" y="460.8" class="st3" width="51.2" height="51.2"/>
	<rect x="204.8" y="460.8" class="st3" width="51.2" height="51.2"/>
	<rect x="256" y="460.8" class="st3" width="51.2" height="51.2"/>
	<rect x="307.2" y="460.8" class="st3" width="51.2" height="51.2"/>
	<rect x="358.4" y="460.8" class="st3" width="51.2" height="51.2"/>
	<rect x="409.6" y="460.8" class="st3" width="51.2" height="51.2"/>
	<rect x="460.8" y="460.8" class="st3" width="51.2" height="51.2"/>
	<rect x="512" y="460.8" class="st3" width="51.2" height="51.2"/>
	<rect x="563.2" y="460.8" class="st3" width="51.2" height="51.2"/>
	<rect x="614.4" y="460.8" class="st3" width="51.2" height="51.2"/>
	<rect x="665.6" y="460.8" class="st3" width="51.2" height="51.2"/>
	<rect x="716.8" y="460.8" class="st3" width="51.2" height="51.2"/>
	<rect x="768" y="460.8" class="st3" width="51.2" height="51.2"/>
	<rect x="819.2" y="460.8" class="st3" width="51.2" height="51.2"/>
	<rect x="870.4" y="460.8" class="st3" width="51.2" height="51.2"/>
	<rect x="921.6" y="460.8" class="st3" width="51.2" height="51.2"/>
	<rect x="972.8" y="460.8" class="st3" width="51.2" height="51.2"/>
	<rect y="512" class="st3" width="51.2" height="51.2"/>
	<rect x="51.2" y="512" class="st3" width="51.2" height="51.2"/>
	<rect x="102.4" y="512" class="st3" width="51.2" height="51.2"/>
	<rect x="153.6" y="512" class="st3" width="51.2" height="51.2"/>
	<rect x="204.8" y="512" class="st3" width="51.2" height="51.2"/>
	<rect x="256" y="512" class="st3" width="51.2" height="51.2"/>
	<rect x="307.2" y="512" class="st3" width="51.2" height="51.2"/>
	<rect x="358.4" y="512" class="st3" width="51.2" height="51.2"/>
	<rect x="409.6" y="512" class="st3" width="51.2" height="51.2"/>
	<rect x="460.8" y="512" class="st3" width="51.2" height="51.2"/>
	<rect x="512" y="512" class="st3" width="51.2" height="51.2"/>
	<rect x="563.2" y="512" class="st3" width="51.2" height="51.2"/>
	<rect x="614.4" y="512" class="st3" width="51.2" height="51.2"/>
	<rect x="665.6" y="512" class="st3" width="51.2" height="51.2"/>
	<rect x="716.8" y="512" class="st3" width="51.2" height="51.2"/>
	<rect x="768" y="512" class="st3" width="51.2" height="51.2"/>
	<rect x="819.2" y="512" class="st3" width="51.2" height="51.2"/>
	<rect x="870.4" y="512" class="st3" width="51.2" height="51.2"/>
	<rect x="921.6" y="512" class="st3" width="51.2" height="51.2"/>
	<rect x="972.8" y="512" class="st3" width="51.2" height="51.2"/>
	<rect y="563.2" class="st3" width="51.2" height="51.2"/>
	<rect x="51.2" y="563.2" class="st3" width="51.2" height="51.2"/>
	<rect x="102.4" y="563.2" class="st3" width="51.2" height="51.2"/>
	<rect x="153.6" y="563.2" class="st3" width="51.2" height="51.2"/>
	<rect x="204.8" y="563.2" class="st3" width="51.2" height="51.2"/>
	<rect x="256" y="563.2" class="st3" width="51.2" height="51.2"/>
	<rect x="307.2" y="563.2" class="st3" width="51.2" height="51.2"/>
	<rect x="358.4" y="563.2" class="st3" width="51.2" height="51.2"/>
	<rect x="409.6" y="563.2" class="st3" width="51.2" height="51.2"/>
	<rect x="460.8" y="563.2" class="st3" width="51.2" height="51.2"/>
	<rect x="512" y="563.2" class="st3" width="51.2" height="51.2"/>
	<rect x="563.2" y="563.2" class="st3" width="51.2" height="51.2"/>
	<rect x="614.4" y="563.2" class="st3" width="51.2" height="51.2"/>
	<rect x="665.6" y="563.2" class="st3" width="51.2" height="51.2"/>
	<rect x="716.8" y="563.2" class="st3" width="51.2" height="51.2"/>
	<rect x="768" y="563.2" class="st3" width="51.2" height="51.2"/>
	<rect x="819.2" y="563.2" class="st3" width="51.2" height="51.2"/>
	<rect x="870.4" y="563.2" class="st3" width="51.2" height="51.2"/>
	<rect x="921.6" y="563.2" class="st3" width="51.2" height="51.2"/>
	<rect x="972.8" y="563.2" class="st3" width="51.2" height="51.2"/>
	<rect y="614.4" class="st3" width="51.2" height="51.2"/>
	<rect x="51.2" y="614.4" class="st3" width="51.2" height="51.2"/>
	<rect x="102.4" y="614.4" class="st3" width="51.2" height="51.2"/>
	<rect x="153.6" y="614.4" class="st3" width="51.2" height="51.2"/>
	<rect x="204.8" y="614.4" class="st3" width="51.2" height="51.2"/>
	<rect x="256" y="614.4" class="st3" width="51.2" height="51.2"/>
	<rect x="307.2" y="614.4" class="st3" width="51.2" height="51.2"/>
	<rect x="358.4" y="614.4" class="st3" width="51.2" height="51.2"/>
	<rect x="409.6" y="614.4" class="st3" width="51.2" height="51.2"/>
	<rect x="460.8" y="614.4" class="st3" width="51.2" height="51.2"/>
	<rect x="512" y="614.4" class="st3" width="51.2" height="51.2"/>
	<rect x="563.2" y="614.4" class="st3" width="51.2" height="51.2"/>
	<rect x="614.4" y="614.4" class="st3" width="51.2" height="51.2"/>
	<rect x="665.6" y="614.4" class="st3" width="51.2" height="51.2"/>
	<rect x="716.8" y="614.4" class="st3" width="51.2" height="51.2"/>
	<rect x="768" y="614.4" class="st3" width="51.2" height="51.2"/>
	<rect x="819.2" y="614.4" class="st3" width="51.2" height="51.2"/>
	<rect x="870.4" y="614.4" class="st3" width="51.2" height="51.2"/>
	<rect x="921.6" y="614.4" class="st3" width="51.2" height="51.2"/>
	<rect x="972.8" y="614.4" class="st3" width="51.2" height="51.2"/>
	<rect y="665.6" class="st3" width="51.2" height="51.2"/>
	<rect x="51.2" y="665.6" class="st3" width="51.2" height="51.2"/>
	<rect x="102.4" y="665.6" class="st3" width="51.2" height="51.2"/>
	<rect x="153.6" y="665.6" class="st3" width="51.2" height="51.2"/>
	<rect x="204.8" y="665.6" class="st3" width="51.2" height="51.2"/>
	<rect x="256" y="665.6" class="st3" width="51.2" height="51.2"/>
	<rect x="307.2" y="665.6" class="st3" width="51.2" height="51.2"/>
	<rect x="358.4" y="665.6" class="st3" width="51.2" height="51.2"/>
	<rect x="409.6" y="665.6" class="st3" width="51.2" height="51.2"/>
	<rect x="460.8" y="665.6" class="st3" width="51.2" height="51.2"/>
	<rect x="512" y="665.6" class="st3" width="51.2" height="51.2"/>
	<rect x="563.2" y="665.6" class="st3" width="51.2" height="51.2"/>
	<rect x="614.4" y="665.6" class="st3" width="51.2" height="51.2"/>
	<rect x="665.6" y="665.6" class="st3" width="51.2" height="51.2"/>
	<rect x="716.8" y="665.6" class="st3" width="51.2" height="51.2"/>
	<rect x="768" y="665.6" class="st3" width="51.2" height="51.2"/>
	<rect x="819.2" y="665.6" class="st3" width="51.2" height="51.2"/>
	<rect x="870.4" y="665.6" class="st3" width="51.2" height="51.2"/>
	<rect x="921.6" y="665.6" class="st3" width="51.2" height="51.2"/>
	<rect x="972.8" y="665.6" class="st3" width="51.2" height="51.2"/>
	<rect y="716.8" class="st3" width="51.2" height="51.2"/>
	<rect x="51.2" y="716.8" class="st3" width="51.2" height="51.2"/>
	<rect x="102.4" y="716.8" class="st3" width="51.2" height="51.2"/>
	<rect x="153.6" y="716.8" class="st3" width="51.2" height="51.2"/>
	<rect x="204.8" y="716.8" class="st3" width="51.2" height="51.2"/>
	<rect x="256" y="716.8" class="st3" width="51.2" height="51.2"/>
	<rect x="307.2" y="716.8" class="st3" width="51.2" height="51.2"/>
	<rect x="358.4" y="716.8" class="st3" width="51.2" height="51.2"/>
	<rect x="409.6" y="716.8" class="st3" width="51.2" height="51.2"/>
	<rect x="460.8" y="716.8" class="st3" width="51.2" height="51.2"/>
	<rect x="512" y="716.8" class="st3" width="51.2" height="51.2"/>
	<rect x="563.2" y="716.8" class="st3" width="51.2" height="51.2"/>
	<rect x="614.4" y="716.8" class="st3" width="51.2" height="51.2"/>
	<rect x="665.6" y="716.8" class="st3" width="51.2" height="51.2"/>
	<rect x="716.8" y="716.8" class="st3" width="51.2" height="51.2"/>
	<rect x="768" y="716.8" class="st3" width="51.2" height="51.2"/>
	<rect x="819.2" y="716.8" class="st3" width="51.2" height="51.2"/>
	<rect x="870.4" y="716.8" class="st3" width="51.2" height="51.2"/>
	<rect x="921.6" y="716.8" class="st3" width="51.2" height="51.2"/>
	<rect x="972.8" y="716.8" class="st3" width="51.2" height="51.2"/>
	<rect y="768" class="st3" width="51.2" height="51.2"/>
	<rect x="51.2" y="768" class="st3" width="51.2" height="51.2"/>
	<rect x="102.4" y="768" class="st3" width="51.2" height="51.2"/>
	<rect x="153.6" y="768" class="st3" width="51.2" height="51.2"/>
	<rect x="204.8" y="768" class="st3" width="51.2" height="51.2"/>
	<rect x="256" y="768" class="st3" width="51.2" height="51.2"/>
	<rect x="307.2" y="768" class="st3" width="51.2" height="51.2"/>
	<rect x="358.4" y="768" class="st3" width="51.2" height="51.2"/>
	<rect x="409.6" y="768" class="st3" width="51.2" height="51.2"/>
	<rect x="460.8" y="768" class="st3" width="51.2" height="51.2"/>
	<rect x="512" y="768" class="st3" width="51.2" height="51.2"/>
	<rect x="563.2" y="768" class="st3" width="51.2" height="51.2"/>
	<rect x="614.4" y="768" class="st3" width="51.2" height="51.2"/>
	<rect x="665.6" y="768" class="st3" width="51.2" height="51.2"/>
	<rect x="716.8" y="768" class="st3" width="51.2" height="51.2"/>
	<rect x="768" y="768" class="st3" width="51.2" height="51.2"/>
	<rect x="819.2" y="768" class="st3" width="51.2" height="51.2"/>
	<rect x="870.4" y="768" class="st3" width="51.2" height="51.2"/>
	<rect x="921.6" y="768" class="st3" width="51.2" height="51.2"/>
	<rect x="972.8" y="768" class="st3" width="51.2" height="51.2"/>
	<rect y="819.2" class="st3" width="51.2" height="51.2"/>
	<rect x="51.2" y="819.2" class="st3" width="51.2" height="51.2"/>
	<rect x="102.4" y="819.2" class="st3" width="51.2" height="51.2"/>
	<rect x="153.6" y="819.2" class="st3" width="51.2" height="51.2"/>
	<rect x="204.8" y="819.2" class="st3" width="51.2" height="51.2"/>
	<rect x="256" y="819.2" class="st3" width="51.2" height="51.2"/>
	<rect x="307.2" y="819.2" class="st3" width="51.2" height="51.2"/>
	<rect x="358.4" y="819.2" class="st3" width="51.2" height="51.2"/>
	<rect x="409.6" y="819.2" class="st3" width="51.2" height="51.2"/>
	<rect x="460.8" y="819.2" class="st3" width="51.2" height="51.2"/>
	<rect x="512" y="819.2" class="st3" width="51.2" height="51.2"/>
	<rect x="563.2" y="819.2" class="st3" width="51.2" height="51.2"/>
	<rect x="614.4" y="819.2" class="st3" width="51.2" height="51.2"/>
	<rect x="665.6" y="819.2" class="st3" width="51.2" height="51.2"/>
	<rect x="716.8" y="819.2" class="st3" width="51.2" height="51.2"/>
	<rect x="768" y="819.2" class="st3" width="51.2" height="51.2"/>
	<rect x="819.2" y="819.2" class="st3" width="51.2" height="51.2"/>
	<rect x="870.4" y="819.2" class="st3" width="51.2" height="51.2"/>
	<rect x="921.6" y="819.2" class="st3" width="51.2" height="51.2"/>
	<rect x="972.8" y="819.2" class="st3" width="51.2" height="51.2"/>
	<rect y="870.4" class="st3" width="51.2" height="51.2"/>
	<rect x="51.2" y="870.4" class="st3" width="51.2" height="51.2"/>
	<rect x="102.4" y="870.4" class="st3" width="51.2" height="51.2"/>
	<rect x="153.6" y="870.4" class="st3" width="51.2" height="51.2"/>
	<rect x="204.8" y="870.4" class="st3" width="51.2" height="51.2"/>
	<rect x="256" y="870.4" class="st3" width="51.2" height="51.2"/>
	<rect x="307.2" y="870.4" class="st3" width="51.2" height="51.2"/>
	<rect x="358.4" y="870.4" class="st3" width="51.2" height="51.2"/>
	<rect x="409.6" y="870.4" class="st3" width="51.2" height="51.2"/>
	<rect x="460.8" y="870.4" class="st3" width="51.2" height="51.2"/>
	<rect x="512" y="870.4" class="st3" width="51.2" height="51.2"/>
	<rect x="563.2" y="870.4" class="st3" width="51.2" height="51.2"/>
	<rect x="614.4" y="870.4" class="st3" width="51.2" height="51.2"/>
	<rect x="665.6" y="870.4" class="st3" width="51.2" height="51.2"/>
	<rect x="716.8" y="870.4" class="st3" width="51.2" height="51.2"/>
	<rect x="768" y="870.4" class="st3" width="51.2" height="51.2"/>
	<rect x="819.2" y="870.4" class="st3" width="51.2" height="51.2"/>
	<rect x="870.4" y="870.4" class="st3" width="51.2" height="51.2"/>
	<rect x="921.6" y="870.4" class="st3" width="51.2" height="51.2"/>
	<rect x="972.8" y="870.4" class="st3" width="51.2" height="51.2"/>
	<rect y="921.6" class="st3" width="51.2" height="51.2"/>
	<rect x="51.2" y="921.6" class="st3" width="51.2" height="51.2"/>
	<rect x="102.4" y="921.6" class="st3" width="51.2" height="51.2"/>
	<rect x="153.6" y="921.6" class="st3" width="51.2" height="51.2"/>
	<rect x="204.8" y="921.6" class="st3" width="51.2" height="51.2"/>
	<rect x="256" y="921.6" class="st3" width="51.2" height="51.2"/>
	<rect x="307.2" y="921.6" class="st3" width="51.2" height="51.2"/>
	<rect x="358.4" y="921.6" class="st3" width="51.2" height="51.2"/>
	<rect x="409.6" y="921.6" class="st3" width="51.2" height="51.2"/>
	<rect x="460.8" y="921.6" class="st3" width="51.2" height="51.2"/>
	<rect x="512" y="921.6" class="st3" width="51.2" height="51.2"/>
	<rect x="563.2" y="921.6" class="st3" width="51.2" height="51.2"/>
	<rect x="614.4" y="921.6" class="st3" width="51.2" height="51.2"/>
	<rect x="665.6" y="921.6" class="st3" width="51.2" height="51.2"/>
	<rect x="716.8" y="921.6" class="st3" width="51.2" height="51.2"/>
	<rect x="768" y="921.6" class="st3" width="51.2" height="51.2"/>
	<rect x="819.2" y="921.6" class="st3" width="51.2" height="51.2"/>
	<rect x="870.4" y="921.6" class="st3" width="51.2" height="51.2"/>
	<rect x="921.6" y="921.6" class="st3" width="51.2" height="51.2"/>
	<rect x="972.8" y="921.6" class="st3" width="51.2" height="51.2"/>
	<rect y="972.8" class="st3" width="51.2" height="51.2"/>
	<rect x="51.2" y="972.8" class="st3" width="51.2" height="51.2"/>
	<rect x="102.4" y="972.8" class="st3" width="51.2" height="51.2"/>
	<rect x="153.6" y="972.8" class="st3" width="51.2" height="51.2"/>
	<rect x="204.8" y="972.8" class="st3" width="51.2" height="51.2"/>
	<rect x="256" y="972.8" class="st3" width="51.2" height="51.2"/>
	<rect x="307.2" y="972.8" class="st3" width="51.2" height="51.2"/>
	<rect x="358.4" y="972.8" class="st3" width="51.2" height="51.2"/>
	<rect x="409.6" y="972.8" class="st3" width="51.2" height="51.2"/>
	<rect x="460.8" y="972.8" class="st3" width="51.2" height="51.2"/>
	<rect x="512" y="972.8" class="st3" width="51.2" height="51.2"/>
	<rect x="563.2" y="972.8" class="st3" width="51.2" height="51.2"/>
	<rect x="614.4" y="972.8" class="st3" width="51.2" height="51.2"/>
	<rect x="665.6" y="972.8" class="st3" width="51.2" height="51.2"/>
	<rect x="716.8" y="972.8" class="st3" width="51.2" height="51.2"/>
	<rect x="768" y="972.8" class="st3" width="51.2" height="51.2"/>
	<rect x="819.2" y="972.8" class="st3" width="51.2" height="51.2"/>
	<rect x="870.4" y="972.8" class="st3" width="51.2" height="51.2"/>
	<rect x="921.6" y="972.8" class="st3" width="51.2" height="51.2"/>
	<rect x="972.8" y="972.8" class="st3" width="51.2" height="51.2"/>
</g>
<g id="Layer_3">
	<g>
		<path class="st4" d="M562.85,153c-5.2,7.09-10.55,13.99-15.85,20.9l-7.96,10.34c-1.31,1.73-2.66,3.43-3.99,5.14l-3.95,5.17
			c-10.57,13.73-21.07,27.43-31.4,41.23c-20.71,27.53-40.79,55.37-60.25,83.65c-19.4,28.31-38.22,57.01-56.51,86.21
			c-9.18,14.58-18.21,29.29-27.26,44.07l-3.42,5.54c-1.13,1.85-2.22,3.72-3.37,5.56l-6.81,11.13c-4.56,7.42-9.09,14.88-13.86,22.27
			c2.21-8.5,4.76-16.9,7.54-25.21c1.36-4.17,2.82-8.3,4.3-12.42c1.47-4.13,3.03-8.22,4.6-12.31c6.33-16.34,13.42-32.4,21.09-48.17
			c15.4-31.52,33.22-61.89,53.11-90.83c19.92-28.92,41.92-56.41,65.84-82.07c11.99-12.8,24.44-25.17,37.43-36.93
			c3.26-2.93,6.51-5.86,9.85-8.71c3.31-2.87,6.65-5.7,10.05-8.47C548.78,163.5,555.7,158.11,562.85,153z"/>
	</g>
	<g>
		<path class="st4" d="M511.77,869.92c5.08-6.94,10.32-13.66,15.5-20.41l15.57-20.14c10.34-13.41,20.63-26.76,30.76-40.21
			c20.31-26.83,40.05-53.93,59.1-81.5c19.13-27.53,37.57-55.51,55.63-83.91c9.06-14.18,17.98-28.49,26.9-42.88l13.44-21.62
			c2.24-3.62,4.49-7.23,6.78-10.84c2.28-3.61,4.54-7.24,6.93-10.82c-1.08,4.16-2.27,8.27-3.49,12.39
			c-1.28,4.08-2.55,8.18-3.92,12.24c-1.36,4.06-2.79,8.09-4.23,12.13c-1.48,4.02-3,8.02-4.53,12.02c-6.22,15.96-13.2,31.62-20.75,47
			c-15.17,30.73-32.63,60.39-52.24,88.54c-19.52,28.22-41.19,54.95-64.69,79.9C564.97,826.68,539.69,849.95,511.77,869.92z"/>
	</g>
</g>
</svg>
